THE INFORMANT 2009 DVDrip

Format                           : AVI
Format/Info                      : Audio Video Interleave
File size                        : 700 MiB
Duration                         : 1h 48mn
Overall bit rate                 : 903 Kbps
Writing application              : MEncoder SVN-r29352(20090610-gcc4.3.3)
Writing library                  : MPlayer

Video
ID                               : 0
Format                           : MPEG-4 Visual
Format profile                   : AdvancedSimple@L5
Format settings, BVOP            : Yes
Format settings, QPel            : No
Format settings, GMC             : No warppoints
Format settings, Matrix          : Default (H.263)
Codec ID                         : XVID
Codec ID/Hint                    : XviD
Duration                         : 1h 48mn
Bit rate                         : 763 Kbps
Width                            : 640 pixels
Height                           : 352 pixels
Display aspect ratio             : 16:9
Frame rate                       : 23.976 fps
Resolution                       : 24 bits
Colorimetry                      : 4:2:0
Scan type                        : Progressive
Bits/(Pixel*Frame)               : 0.141
Stream size                      : 592 MiB (84%)
Writing library                  : XviD 1.2.1 (UTC 2008-12-04)

Audio
ID                               : 1
Format                           : MPEG Audio
Format version                   : Version 1
Format profile                   : Layer 3
Codec ID                         : 55
Codec ID/Hint                    : MP3
Duration                         : 1h 48mn
Bit rate mode                    : Constant
Bit rate                         : 128 Kbps
Channel(s)                       : 2 channels
Sampling rate                    : 44.1 KHz
Resolution                       : 16 bits
Video delay                      : 42ms
Stream size                      : 99.3 MiB (14%)
Alignment                        : Aligned on interleaves
Interleave, duration             : 26 ms (0.63 video frame)
Interleave, preload duration     : 522 ms

PLOT

The Informant! is about Mark Whitacre (Damon), a rising star at Decatur, Illinois based Archer Daniels Midland (ADM) in the early 1990s who wound up blowing the whistle on the company’s price-fixing tactics, only after his wife forced him to.[4][5] Matt Damon portrays the bipolar whistleblower dubbed "The wacky little brother of Erin Brockovich".[6] In the film, Whitacre displays bizarre behavior including recklessness and grandiosity.

One night in early November 1992, the high-ranking ADM executive confessed to FBI agent Brian Shepard (Bakula), present only to install a wire tap on Whitacre's phone, that ADM executives—including Whitacre himself—had routinely met with competitors to fix the price of lysine, an additive used in the commercial livestock industry. As the highest-ranked executive to ever turn whistleblower in US history, Whitacre secretly gathered hundreds of hours of video and audio over several years to present to the FBI.[4][7][8] He assisted in gathering evidence by clandestinely taping the company’s activity in business meetings at various locations around the globe such as Tokyo, Paris, Mexico City, and Hong Kong, eventually collecting enough evidence of collaboration and conspiracy to warrant a raid. 
http://www.imdb.com/title/tt1130080/

PLEASE SEED AND ENJOY THANKS

screens
 
http://img188.imageshack.us/img188/5090/vlcsnap2010012310h24m41.png 
http://img200.imageshack.us/img200/2569/vlcsnap2010012310h24m44.png 
http://img519.imageshack.us/img519/2949/vlcsnap2010012310h25m08.png 
http://img188.imageshack.us/img188/2719/vlcsnap2010012310h25m31.png